<?xml version="1.0" standalone="no"?>
<!DOCTYPE svg PUBLIC "-//W3C//DTD SVG 20010904//EN"
 "http://www.w3.org/TR/2001/REC-SVG-20010904/DTD/svg10.dtd">
<svg version="1.0" xmlns="http://www.w3.org/2000/svg"
 width="1200.000000pt" height="1200.000000pt" viewBox="0 0 1200.000000 1200.000000"
 preserveAspectRatio="xMidYMid meet">

<g transform="translate(0.000000,1200.000000) scale(0.100000,-0.100000)"
fill="#000000" stroke="none">
<path d="M2640 7981 c-482 -62 -911 -279 -1236 -624 -110 -118 -224 -272 -224
-304 0 -13 12 -83 26 -155 30 -155 103 -385 164 -517 l43 -92 37 113 c175 532
634 929 1185 1024 135 23 378 23 505 0 281 -51 541 -175 754 -362 l86 -75 0
348 0 348 -83 47 c-372 213 -828 303 -1257 249z"/>
<path d="M4120 5961 c0 -892 3 -1621 6 -1621 4 0 39 28 80 63 l73 62 0 836 1
836 89 6 c339 24 647 265 760 595 25 75 48 208 37 219 -4 5 -72 7 -149 7 -123
-1 -154 -5 -230 -28 -188 -56 -359 -171 -458 -306 l-44 -61 -3 441 -2 440 -42
38 c-22 20 -58 50 -79 65 l-39 29 0 -1621z"/>
<path d="M2325 6868 c46 -416 286 -809 635 -1039 154 -102 345 -180 527 -215
94 -19 386 -26 454 -11 l36 7 -4 48 c-24 235 -115 490 -245 682 l-60 90 -57
-8 c-115 -15 -359 -6 -468 17 -289 61 -545 201 -742 406 l-83 87 7 -64z"/>
<path d="M7180 6071 l0 -78 -40 19 c-54 27 -118 18 -165 -24 -65 -56 -71 -168
-13 -233 49 -56 152 -71 199 -29 18 16 19 16 19 -4 0 -19 6 -22 45 -22 l45 0
0 225 0 225 -45 0 -45 0 0 -79z m-21 -147 c45 -57 12 -144 -55 -144 -20 0 -44
4 -54 10 -27 15 -43 70 -30 106 15 39 37 54 81 54 29 0 42 -6 58 -26z"/>
<path d="M9310 5925 l0 -225 48 0 47 0 0 225 0 225 -47 0 -48 0 0 -225z"/>
<path d="M5450 5910 l0 -210 45 0 44 0 3 121 3 120 58 -95 c79 -129 87 -129
164 1 l58 97 3 -122 3 -122 44 0 45 0 0 210 0 210 -39 0 -39 0 -77 -131 c-68
-117 -78 -129 -89 -113 -7 11 -43 70 -80 132 l-67 112 -40 0 -39 0 0 -210z"/>
<path d="M6550 5910 l0 -210 160 0 160 0 0 40 0 40 -115 0 -115 0 0 45 0 45
100 0 100 0 0 40 0 40 -100 0 -100 0 0 45 0 45 110 0 c66 0 111 4 111 10 1 6
2 22 3 38 l1 27 -157 3 -158 3 0 -211z"/>
<path d="M7470 6109 c-156 -62 -180 -276 -42 -373 35 -25 55 -31 113 -34 76
-5 143 14 173 47 15 16 14 19 -12 44 l-29 28 -27 -22 c-86 -68 -216 -1 -216
111 0 112 130 179 216 111 l27 -22 28 27 c34 32 27 47 -36 75 -44 20 -153 25
-195 8z"/>
<path d="M9530 6065 c0 -31 -3 -35 -25 -35 -22 0 -25 -4 -25 -40 0 -36 3 -40
25 -40 25 0 25 -1 25 -91 0 -50 5 -99 11 -111 21 -38 100 -59 153 -38 23 8 24
12 15 39 -9 25 -17 30 -47 33 l-37 3 -3 83 -3 82 41 0 41 0 -3 38 c-3 35 -5
37 -40 40 -36 3 -38 5 -38 38 0 34 0 34 -45 34 -45 0 -45 0 -45 -35z"/>
<path d="M10570 6065 c0 -31 -3 -35 -25 -35 -22 0 -25 -4 -25 -40 0 -36 3 -40
25 -40 25 0 25 -1 25 -91 0 -50 5 -99 11 -111 21 -38 100 -59 153 -38 23 8 24
12 15 39 -9 25 -17 30 -47 33 l-37 3 -3 83 -3 82 41 0 41 0 -3 38 c-3 35 -5
37 -40 40 -36 3 -38 5 -38 38 0 34 0 34 -45 34 -45 0 -45 0 -45 -35z"/>
<path d="M5970 6027 c0 -3 29 -74 65 -158 36 -84 65 -160 65 -170 0 -28 -27
-42 -69 -36 -34 4 -40 2 -50 -20 -17 -36 -14 -41 28 -54 52 -16 102 -5 135 30
23 24 87 164 167 364 l19 47 -43 0 -43 0 -44 -110 c-24 -60 -47 -107 -50 -104
-3 3 -24 51 -47 107 l-41 102 -46 3 c-25 2 -46 1 -46 -1z"/>
<path d="M7878 6021 c-68 -22 -118 -90 -118 -159 1 -47 35 -107 76 -133 51
-31 143 -33 193 -4 58 34 76 68 76 140 0 71 -19 106 -73 138 -35 21 -116 30
-154 18z m121 -97 c46 -58 11 -144 -58 -144 -20 0 -46 7 -58 15 -30 21 -39 74
-19 113 18 35 28 40 78 41 28 1 41 -5 57 -25z"/>
<path d="M8170 5865 l0 -165 48 0 47 0 1 99 c1 124 14 151 74 151 59 0 70 -22
70 -147 l0 -103 45 0 45 0 0 113 c0 131 -14 172 -70 199 -45 23 -87 23 -133
-1 -36 -18 -37 -18 -37 0 0 16 -8 19 -45 19 l-45 0 0 -165z"/>
<path d="M8637 6016 c-51 -19 -65 -33 -73 -71 -11 -62 27 -95 128 -109 97 -14
80 -62 -19 -54 -32 3 -65 8 -74 12 -11 5 -19 -1 -27 -19 -17 -36 -15 -40 13
-53 76 -35 198 -22 234 25 51 63 13 124 -89 141 -70 13 -86 22 -77 46 7 19 96
23 127 6 16 -9 22 -5 35 20 9 17 13 34 11 39 -7 11 -87 31 -123 31 -15 -1 -45
-7 -66 -14z"/>
<path d="M8902 5913 c4 -135 17 -171 72 -197 45 -21 83 -20 129 3 36 18 37 18
37 0 0 -16 8 -19 45 -19 l45 0 0 165 0 165 -44 0 -43 0 -5 -105 c-6 -126 -18
-148 -82 -143 -55 4 -66 28 -66 151 l0 97 -46 0 -46 0 4 -117z"/>
<path d="M9818 6015 c-51 -17 -57 -28 -32 -63 12 -17 19 -20 34 -12 10 5 41
10 69 10 40 0 53 -4 66 -22 l15 -23 -76 -6 c-52 -5 -84 -13 -102 -26 -49 -37
-49 -110 2 -147 37 -28 125 -29 155 -2 21 19 21 19 21 -2 0 -19 6 -22 46 -22
l46 0 -3 118 c-4 126 -14 155 -63 188 -35 22 -122 27 -178 9z m152 -192 c0
-56 -99 -87 -122 -38 -17 38 4 55 68 55 44 0 54 -3 54 -17z"/>
<path d="M10140 5865 l0 -165 48 0 47 0 1 99 c1 124 14 151 74 151 59 0 70
-22 70 -147 l0 -103 45 0 45 0 0 113 c0 131 -14 172 -70 199 -45 23 -87 23
-133 -1 -36 -18 -37 -18 -37 0 0 16 -8 19 -45 19 l-45 0 0 -165z"/>
<path d="M1312 5838 c-122 -249 -186 -455 -237 -769 -3 -19 14 -55 60 -133
204 -343 477 -599 829 -776 501 -253 1034 -296 1556 -128 141 46 234 86 368
160 l92 51 0 325 0 324 -74 -70 c-175 -162 -404 -286 -643 -346 -152 -39 -260
-49 -428 -43 -301 12 -539 88 -785 252 -177 118 -290 227 -407 394 -154 220
-257 520 -264 768 -1 40 -5 77 -9 83 -4 6 -30 -35 -58 -92z"/>
<path d="M7960 4710 c0 -87 4 -140 10 -140 6 0 10 53 10 140 0 87 -4 140 -10
140 -6 0 -10 -53 -10 -140z"/>
<path d="M9990 4788 c0 -35 -4 -58 -8 -52 -28 42 -108 40 -142 -3 -65 -82 26
-197 119 -149 27 15 31 15 31 1 0 -8 6 -15 13 -15 11 0 14 31 15 140 1 117 -1
140 -13 140 -12 0 -15 -14 -15 -62z m-25 -63 c16 -15 25 -36 25 -55 0 -33 -38
-80 -64 -80 -58 0 -97 58 -76 111 22 52 77 63 115 24z"/>
<path d="M5510 4823 c-39 -15 -70 -47 -81 -84 -25 -80 25 -155 109 -166 42 -6
117 20 107 37 -4 6 -17 4 -37 -6 -41 -21 -93 -12 -130 22 -23 23 -28 36 -28
74 0 38 5 51 28 73 36 35 79 43 125 23 22 -9 39 -11 43 -5 13 22 -94 48 -136
32z"/>
<path d="M6860 4823 c-39 -15 -70 -47 -81 -84 -25 -80 25 -155 109 -166 42 -6
117 20 107 37 -4 6 -17 4 -37 -6 -41 -21 -93 -12 -130 22 -23 23 -28 36 -28
74 0 38 5 51 28 73 36 35 79 43 125 23 22 -9 39 -11 43 -5 13 22 -94 48 -136
32z"/>
<path d="M9260 4700 c0 -109 2 -130 15 -130 12 0 15 18 15 103 l0 102 52 -87
c29 -48 55 -85 59 -82 4 2 29 41 56 87 l48 82 3 -102 c4 -151 22 -129 22 27 0
72 -4 130 -9 130 -5 0 -33 -43 -62 -95 -30 -52 -56 -95 -59 -95 -3 0 -30 43
-60 95 -30 52 -61 95 -67 95 -10 0 -13 -33 -13 -130z"/>
<path d="M10420 4700 l0 -130 95 0 c57 0 95 4 95 10 0 6 -33 10 -80 10 l-80 0
0 50 0 50 65 0 c37 0 65 4 65 10 0 6 -28 10 -65 10 l-65 0 0 50 0 50 75 0 c43
0 75 4 75 10 0 6 -37 10 -90 10 l-90 0 0 -130z"/>
<path d="M8060 4790 c0 -11 -7 -20 -15 -20 -8 0 -15 -4 -15 -10 0 -5 7 -10 15
-10 12 0 15 -14 15 -70 0 -57 4 -74 20 -90 11 -11 26 -20 34 -20 24 0 46 12
40 21 -3 5 -10 7 -15 4 -5 -4 -18 -3 -29 0 -18 6 -20 15 -20 81 l0 74 30 0
c17 0 30 5 30 10 0 6 -13 10 -30 10 -23 0 -30 4 -30 20 0 11 -7 20 -15 20 -8
0 -15 -9 -15 -20z"/>
<path d="M5728 4759 c-16 -6 -28 -15 -28 -21 0 -6 8 -7 18 -3 62 24 112 8 112
-37 0 -15 -8 -18 -55 -18 -47 0 -57 -3 -71 -25 -13 -21 -15 -31 -6 -50 15 -32
72 -44 107 -21 22 14 25 15 25 1 0 -8 5 -15 10 -15 15 0 13 153 -3 173 -15 22
-73 30 -109 16z m102 -119 c0 -42 -80 -65 -103 -29 -20 32 -1 49 53 49 43 0
50 -3 50 -20z"/>
<path d="M5930 4670 c0 -60 4 -100 10 -100 6 0 10 28 10 65 0 55 4 70 23 89
13 13 30 25 38 28 8 3 11 8 7 12 -7 9 -49 -11 -60 -28 -5 -6 -8 -1 -8 12 0 12
-4 22 -10 22 -6 0 -10 -40 -10 -100z"/>
<path d="M6114 4760 c-56 -22 -73 -112 -30 -155 38 -38 92 -44 136 -16 23 15
6 23 -25 11 -37 -14 -81 -4 -100 23 -8 12 -15 25 -15 29 0 5 38 8 85 8 92 0
95 2 70 55 -23 47 -71 65 -121 45z m86 -30 c38 -38 27 -50 -50 -50 -77 0 -84
7 -45 45 29 30 68 32 95 5z"/>
<path d="M6344 4760 c-56 -22 -73 -112 -30 -155 38 -38 92 -44 136 -16 23 15
6 23 -25 11 -37 -14 -81 -4 -100 23 -8 12 -15 25 -15 29 0 5 38 8 85 8 92 0
95 2 70 55 -23 47 -71 65 -121 45z m86 -30 c38 -38 27 -50 -50 -50 -77 0 -84
7 -45 45 29 30 68 32 95 5z"/>
<path d="M6540 4670 c0 -60 4 -100 10 -100 6 0 10 28 10 65 0 55 4 70 23 89
13 13 30 25 38 28 8 3 11 8 7 12 -7 9 -49 -11 -60 -28 -5 -6 -8 -1 -8 12 0 12
-4 22 -10 22 -6 0 -10 -40 -10 -100z"/>
<path d="M7078 4755 c-34 -19 -48 -44 -48 -85 0 -42 15 -67 52 -86 66 -34 141
11 141 87 0 73 -81 120 -145 84z m97 -30 c16 -15 25 -36 25 -55 0 -33 -38 -80
-64 -80 -58 0 -97 58 -76 111 22 52 77 63 115 24z"/>
<path d="M7280 4670 c0 -60 4 -100 10 -100 6 0 10 28 10 65 0 57 3 69 25 90
28 29 51 31 83 9 19 -13 22 -24 22 -90 0 -59 3 -74 15 -74 20 0 21 107 1 155
-18 43 -66 56 -115 31 -27 -15 -31 -15 -31 -1 0 8 -4 15 -10 15 -6 0 -10 -40
-10 -100z"/>
<path d="M7533 4755 c-25 -18 -30 -56 -10 -73 7 -6 33 -16 59 -22 51 -13 65
-31 42 -55 -18 -18 -57 -20 -86 -4 -13 7 -24 7 -30 1 -15 -15 57 -35 98 -27
37 7 62 40 51 70 -7 17 -11 19 -75 35 -83 21 -58 77 28 65 34 -5 42 -4 34 5
-20 20 -87 23 -111 5z"/>
<path d="M7710 4691 c0 -74 2 -81 26 -100 31 -25 58 -26 97 -7 23 13 27 13 27
0 0 -8 5 -14 10 -14 6 0 10 40 10 100 0 60 -4 100 -10 100 -6 0 -10 -28 -10
-65 0 -57 -3 -69 -25 -90 -29 -30 -58 -32 -85 -5 -16 16 -20 33 -20 90 0 40
-4 70 -10 70 -6 0 -10 -33 -10 -79z"/>
<path d="M8228 4759 c-16 -6 -28 -15 -28 -21 0 -6 8 -7 18 -3 62 24 112 8 112
-37 0 -15 -8 -18 -55 -18 -47 0 -57 -3 -71 -25 -13 -21 -15 -31 -6 -50 15 -32
72 -44 107 -21 22 14 25 15 25 1 0 -8 5 -15 10 -15 15 0 13 153 -3 173 -15 22
-73 30 -109 16z m102 -119 c0 -42 -80 -65 -103 -29 -20 32 -1 49 53 49 43 0
50 -3 50 -20z"/>
<path d="M8430 4670 c0 -60 4 -100 10 -100 6 0 10 28 10 65 0 57 3 69 25 90
28 29 51 31 83 9 19 -13 22 -24 22 -90 0 -59 3 -74 15 -74 20 0 21 107 1 155
-18 43 -66 56 -115 31 -27 -15 -31 -15 -31 -1 0 8 -4 15 -10 15 -6 0 -10 -40
-10 -100z"/>
<path d="M8708 4754 c-34 -18 -48 -43 -48 -84 0 -42 15 -67 50 -85 37 -19 70
-19 98 1 32 22 17 36 -17 17 -59 -35 -128 31 -101 96 7 17 25 35 42 42 27 11
35 10 61 -4 37 -22 50 -12 18 14 -28 23 -66 24 -103 3z"/>
<path d="M8895 4673 c27 -57 43 -104 39 -115 -7 -24 -40 -41 -64 -33 -11 4
-20 2 -20 -4 0 -5 9 -13 20 -16 43 -14 61 4 112 114 65 137 70 151 57 151 -5
0 -27 -37 -48 -82 l-39 -83 -38 83 c-20 45 -43 82 -50 82 -9 0 2 -34 31 -97z"/>
<path d="M9638 4759 c-16 -6 -28 -15 -28 -21 0 -6 8 -7 18 -3 62 24 112 8 112
-37 0 -15 -8 -18 -55 -18 -47 0 -57 -3 -71 -25 -13 -21 -15 -31 -6 -50 15 -32
72 -44 107 -21 22 14 25 15 25 1 0 -8 5 -15 10 -15 15 0 13 153 -3 173 -15 22
-73 30 -109 16z m102 -119 c0 -42 -80 -65 -103 -29 -20 32 -1 49 53 49 43 0
50 -3 50 -20z"/>
<path d="M10124 4760 c-56 -22 -73 -112 -30 -155 38 -38 92 -44 136 -16 23 15
6 23 -25 11 -37 -14 -81 -4 -100 23 -8 12 -15 25 -15 29 0 5 38 8 85 8 92 0
95 2 70 55 -23 47 -71 65 -121 45z m86 -30 c38 -38 27 -50 -50 -50 -77 0 -84
7 -45 45 29 30 68 32 95 5z"/>
<path d="M10688 4759 c-16 -6 -28 -15 -28 -21 0 -6 8 -7 18 -3 62 24 112 8
112 -37 0 -15 -8 -18 -55 -18 -47 0 -57 -3 -71 -25 -13 -21 -15 -31 -6 -50 15
-32 72 -44 107 -21 22 14 25 15 25 1 0 -8 5 -15 10 -15 15 0 13 153 -3 173
-15 22 -73 30 -109 16z m102 -119 c0 -42 -80 -65 -103 -29 -20 32 -1 49 53 49
43 0 50 -3 50 -20z"/>
<path d="M10893 4755 c-25 -18 -30 -56 -10 -73 7 -6 33 -16 59 -22 51 -13 65
-31 42 -55 -18 -18 -57 -20 -86 -4 -13 7 -24 7 -30 1 -15 -15 57 -35 98 -27
37 7 62 40 51 70 -7 17 -11 19 -75 35 -83 21 -58 77 28 65 34 -5 42 -4 34 5
-20 20 -87 23 -111 5z"/>
<path d="M11075 4673 c27 -57 43 -104 39 -115 -7 -24 -40 -41 -64 -33 -11 4
-20 2 -20 -4 0 -5 9 -13 20 -16 43 -14 61 4 112 114 65 137 70 151 57 151 -5
0 -27 -37 -48 -82 l-39 -83 -38 83 c-20 45 -43 82 -50 82 -9 0 2 -34 31 -97z"/>
<path d="M9069 4603 c-5 -31 -3 -83 3 -83 9 0 29 71 22 82 -6 10 -24 11 -25 1z"/>
</g>
</svg>
